<?xml version="1.0" standalone="no"?>
<!DOCTYPE svg PUBLIC "-//W3C//DTD SVG 20010904//EN"
 "http://www.w3.org/TR/2001/REC-SVG-20010904/DTD/svg10.dtd">
<svg version="1.0" xmlns="http://www.w3.org/2000/svg"
 width="200.000000pt" height="200.000000pt" viewBox="0 0 200.000000 200.000000"
 preserveAspectRatio="xMidYMid meet">
<metadata>
Created by potrace 1.14, written by Peter Selinger 2001-2017
</metadata>
<g transform="translate(0.000000,200.000000) scale(0.100000,-0.100000)"
fill="#000000" stroke="none">
<path d="M315 1964 c-83 -50 -167 -119 -247 -202 l-68 -70 2 -88 c1 -79 2 -83
7 -34 6 59 22 85 108 177 58 61 214 180 263 200 19 7 44 19 55 25 11 7 61 15
110 19 90 6 90 6 -40 7 l-130 2 -60 -36z"/>
<path d="M813 1957 c-6 -28 -6 -71 0 -121 8 -68 7 -84 -13 -147 -47 -144 -143
-221 -365 -294 -38 -12 -82 -25 -97 -29 l-27 -6 15 52 c24 84 73 175 147 276
38 51 67 96 63 99 -12 13 -112 -68 -151 -122 -80 -112 -98 -152 -166 -372 -12
-40 -25 -73 -29 -73 -8 0 -20 124 -20 204 l0 51 -15 -29 c-36 -69 -47 -135
-42 -250 3 -61 10 -131 15 -156 l9 -45 2 38 c0 20 5 37 10 37 8 0 13 -31 23
-154 4 -41 28 -47 28 -7 0 35 25 43 35 12 6 -20 43 -57 49 -50 3 3 -2 47 -11
99 -14 81 -15 113 -5 211 7 64 14 124 18 132 3 10 28 21 62 27 121 25 246 78
354 151 l56 39 1 -136 c1 -147 14 -217 59 -312 29 -61 130 -175 183 -206 l32
-19 -6 59 c-4 32 -9 79 -12 104 l-6 45 23 -41 c13 -22 36 -57 52 -78 43 -55
196 -186 217 -186 18 0 18 2 -1 49 -11 30 -20 79 -21 123 l-3 73 70 73 c39 40
86 99 105 132 19 33 36 60 39 60 3 0 13 -28 23 -63 40 -136 115 -268 208 -367
64 -69 69 -79 68 -132 l0 -43 -20 62 c-24 77 -68 119 -135 129 -118 17 -204
-56 -204 -175 0 -109 62 -170 180 -179 l69 -5 -48 -46 c-26 -25 -66 -63 -90
-84 -23 -21 -40 -42 -36 -45 3 -4 22 -5 41 -3 44 3 43 -9 -4 -51 -45 -41 -115
-75 -226 -113 -44 -14 -94 -39 -113 -56 -32 -28 -65 -36 -129 -30 -31 2 -94
-27 -94 -43 0 -8 -10 -17 -22 -19 -13 -2 146 -4 352 -4 206 0 355 3 330 7 -25
4 -38 8 -29 8 26 3 94 39 143 77 25 19 50 35 55 35 10 0 21 -49 21 -91 0 -27
-3 -29 -39 -29 -22 0 -44 6 -51 15 -7 8 -17 15 -22 15 -6 0 -6 -6 1 -14 10
-12 8 -15 -11 -19 -13 -2 38 -5 112 -6 123 -1 136 1 137 17 1 19 10 101 21
182 6 47 8 37 12 -75 3 -72 7 120 8 425 l2 555 -56 3 c-68 3 -74 6 -74 36 0
27 21 36 88 36 l42 0 -2 148 -2 147 -3 -131 -4 -131 -51 -6 c-29 -4 -53 -5
-55 -3 -2 2 -6 50 -7 107 -2 57 -9 119 -16 138 l-13 33 -14 -38 c-11 -28 -16
-94 -19 -234 -2 -113 -9 -230 -18 -279 -8 -47 -13 -88 -10 -93 3 -4 0 -8 -6
-8 -13 0 -94 86 -128 136 -12 19 -30 56 -39 84 -9 27 -20 47 -26 43 -5 -3 -7
0 -5 8 3 8 1 28 -5 44 -9 29 -20 155 -33 369 -5 72 -3 97 5 92 6 -4 11 -1 11
8 0 8 -4 18 -10 21 -5 3 -10 21 -11 38 0 18 -7 55 -14 82 -12 46 -13 37 -12
-125 1 -175 1 -175 -35 -281 -37 -114 -82 -190 -148 -254 l-41 -40 29 65 c45
100 94 259 87 281 -5 14 -14 19 -28 17 -19 -3 -24 -14 -35 -73 -31 -170 -87
-309 -144 -356 -36 -30 -25 -45 17 -23 15 8 29 13 31 12 4 -5 22 -163 18 -167
-2 -2 -39 31 -83 73 -96 94 -136 167 -157 286 -8 47 -12 95 -9 108 3 12 1 22
-5 22 -28 0 -39 -165 -20 -288 19 -121 14 -126 -54 -51 -54 60 -109 168 -132
259 -23 89 -23 292 -1 340 13 29 37 139 37 174 0 5 14 -11 30 -36 87 -131 124
-150 286 -150 163 -1 186 13 87 51 -97 37 -176 109 -215 195 -9 21 -10 30 -2
33 8 3 8 14 -1 41 -8 24 -10 54 -6 85 l8 47 -38 0 c-31 0 -38 -4 -43 -25 -7
-28 0 -68 20 -105 7 -14 24 -50 38 -80 32 -71 76 -123 137 -164 27 -18 46 -36
42 -39 -12 -12 -103 -7 -137 7 -46 19 -112 80 -141 130 -44 76 -61 185 -35
221 4 6 10 20 13 33 4 19 1 22 -27 22 -30 0 -33 -3 -43 -43z m1157 -875 c0
-11 -81 -92 -92 -92 -18 0 1 61 24 80 23 19 68 27 68 12z m20 -266 c0 -195 -3
-237 -15 -250 -8 -8 -15 -19 -15 -25 0 -33 -84 -172 -145 -242 -51 -57 -166
-150 -209 -169 -23 -10 -90 -23 -151 -29 -60 -6 -128 -14 -150 -17 -45 -7 -39
7 10 23 17 6 80 41 140 78 128 80 192 117 273 164 70 39 175 139 202 191 12
24 22 71 26 129 8 104 -2 116 -36 46 -26 -53 -114 -190 -128 -199 -11 -6 -4
133 8 149 8 10 16 47 46 198 14 72 21 90 39 97 11 4 36 26 55 48 19 22 38 41
43 41 4 1 7 -104 7 -233z m-262 -333 c-34 -58 -112 -123 -147 -123 -13 1 -13
3 4 15 42 31 117 112 143 153 40 63 40 24 0 -45z m244 -85 c-8 -8 -9 -4 -5 13
4 13 8 18 11 10 2 -7 -1 -18 -6 -23z m-432 -368 c0 -19 -7 -20 -132 -20 -72 0
-128 3 -124 7 4 5 51 13 104 19 148 17 152 17 152 -6z"/>
<path d="M1994 1625 c0 -60 1 -84 3 -52 2 32 2 81 0 110 -2 29 -3 3 -3 -58z"/>
<path d="M4 755 c0 -418 1 -732 3 -697 3 45 8 62 18 62 9 0 16 17 21 45 4 27
11 44 18 42 6 -2 23 -31 37 -65 29 -71 39 -84 31 -46 -3 19 -1 25 7 20 6 -4
11 -12 11 -18 0 -6 11 -26 25 -44 14 -18 25 -35 25 -38 0 -3 -26 -7 -57 -9
-32 -2 90 -4 271 -5 261 -2 327 1 319 11 -5 6 -16 38 -23 70 -13 58 -14 59
-74 88 -55 27 -55 19 0 -19 54 -36 -43 7 -158 71 -134 74 -218 139 -244 189
-25 49 -7 45 49 -10 58 -58 59 -58 176 -131 105 -66 98 -52 -11 22 -96 64
-198 162 -233 221 -38 64 -56 150 -53 248 1 48 -1 90 -4 94 -6 5 -10 -16 -21
-116 -2 -19 2 -64 9 -100 17 -77 18 -134 4 -125 -16 10 -57 104 -76 175 -12
45 -18 101 -18 182 0 96 -2 115 -13 106 -7 -6 -13 -19 -13 -29 0 -11 -4 -19
-10 -19 -6 0 -11 109 -13 293 -1 160 -3 -50 -3 -468z m13 -57 c-3 -8 -6 -5 -6
6 -1 11 2 17 5 13 3 -3 4 -12 1 -19z m55 -127 c2 -13 -3 -26 -9 -28 -9 -3 -13
7 -13 33 0 41 17 37 22 -5z m28 -101 c-5 -22 -8 -27 -9 -13 -1 21 9 56 14 51
2 -2 0 -19 -5 -38z m-60 -14 c0 -2 -3 -11 -6 -20 -9 -23 -24 -20 -24 4 0 11 7
20 15 20 8 0 15 -2 15 -4z m118 -33 c22 -60 23 -310 0 -270 -17 31 -35 164
-30 230 5 72 13 83 30 40z m-84 -59 c-10 -26 -19 -43 -21 -37 -2 5 2 23 8 39
12 29 15 38 18 51 0 3 4 4 7 0 3 -3 -2 -27 -12 -53z m146 27 c0 -19 125 -143
178 -175 31 -19 105 -53 164 -76 58 -22 110 -46 116 -53 5 -7 12 -27 15 -44
l6 -33 -219 0 c-158 0 -221 3 -226 12 -4 6 -14 37 -22 67 -16 61 -32 311 -19
311 4 0 7 -4 7 -9z m-33 -243 c-3 -7 -5 -2 -5 12 0 14 2 19 5 13 2 -7 2 -19 0
-25z m23 -58 c0 -13 -1 -13 -10 0 -5 8 -10 22 -10 30 0 13 1 13 10 0 5 -8 10
-22 10 -30z"/>
<path d="M415 1231 c-23 -10 -53 -33 -68 -50 -22 -27 -27 -42 -27 -88 0 -67
20 -111 63 -140 50 -34 107 -39 159 -14 59 29 81 63 86 132 5 72 -24 132 -80
160 -46 24 -82 24 -133 0z"/>
<path d="M815 840 c11 -5 27 -9 35 -9 9 0 8 4 -5 9 -11 5 -27 9 -35 9 -9 0 -8
-4 5 -9z"/>
<path d="M935 807 c67 -25 191 -92 200 -107 3 -6 16 -15 28 -21 22 -11 22 -11
2 9 -56 55 -180 121 -262 137 -15 3 -1 -5 32 -18z"/>
<path d="M1190 656 c0 -2 8 -10 18 -17 15 -13 16 -12 3 4 -13 16 -21 21 -21
13z"/>
<path d="M1230 606 c0 -2 8 -10 18 -17 15 -13 16 -12 3 4 -13 16 -21 21 -21
13z"/>
<path d="M1291 513 c6 -16 12 -62 12 -103 3 -109 -17 -153 -98 -215 -36 -27
-65 -51 -65 -53 0 -1 18 8 41 20 53 30 111 90 126 131 17 46 16 171 -1 212
-18 41 -30 48 -15 8z"/>
<path d="M778 97 c12 -13 22 -28 22 -33 0 -6 6 -19 14 -29 12 -17 14 -16 18
14 4 27 0 34 -27 51 -43 27 -53 25 -27 -3z"/>
<path d="M28 3 c7 -3 16 -2 19 1 4 3 -2 6 -13 5 -11 0 -14 -3 -6 -6z"/>
</g>
</svg>
